# xmcd CD database file
#
# Track frame offsets:
#	150
#	27970
#	68142
#	95550
#	119800
#	142585
#	162150
#
# Disc length: 2518 seconds
#
# Revision: 3
# Processed by: cddbd v1.5.2PL0 Copyright (c) Steve Scherf et al.
# Submitted via: CDex 1.51
#
DISCID=5909d407
DTITLE=Joe Pass - Montreux 77
DYEAR=1977
DGENRE=Jazz
TTITLE0=Blues for Yano San
TTITLE1=Blues for Sitges
TTITLE2=Blues for Val
TTITLE3=Wait Till You See Her
TTITLE4=She's Funny That Way
TTITLE5=Blues for Martin
TTITLE6=Masquerade
EXTD=YEAR: 1977
EXTT0=
EXTT1=
EXTT2=
EXTT3=
EXTT4=
EXTT5=
EXTT6=
PLAYORDER=
